Genre:Horror | Thriller
Language:English

IMDb:http://www.imdb.com/title/tt0493451

Source:BluRay.x264-aAF

Format : MPEG-4
Format profile : Base Media
Codec ID : isom
File size : 1.80 GiB
Duration : 1h 28mn
Overall bit rate : 2 895 Kbps

Video
Format settings, CABAC : Yes
Format settings, ReFrames : 3 frames
Format settings, GOP : N=1
Codec ID : avc1
Codec ID/Info : Advanced Video Coding
Duration : 1h 28mn
Bit rate mode : Variable
Bit rate : 2 463 Kbps
Maximum bit rate : 31.3 Mbps
Width : 1 280 pixels
Height : 720 pixels
Display aspect ratio : 16:9
Frame rate mode : Constant
Frame rate : 23.976 fps
Color space : YUV
Chroma subsampling : 4:2:0
Bit depth : 8 bits
Scan type : Progressive
Bits/(Pixel*Frame) : 0.111
Stream size : 1.52 GiB (85%)
Writing library : x264


Audio
ID : 2
Format : AAC
Format/Info : Advanced Audio Codec
Format version : Version 4
Format profile : LC
Format settings, SBR : No
Codec ID : 40
Duration : 1h 28mn
Bit rate mode : Variable
Bit rate : 444 Kbps
Maximum bit rate : 549 Kbps
Channel(s) : 6 channels
Channel positions : Front: L C R, Side: L R, LFE
Sampling rate : 48.0 KHz
Stream size : 282 MiB (15%)


Plot:
A tormented man's reluctant search for greater meaning in his life
 
http://rapidhdd.com/images/457625vlcsnap-00001.png
 
http://www.rapidhdd.com/images/977576vlcsnap-00004.png
 
http://www.rapidhdd.com/images/509810vlcsnap-00006.png
 
http://www.rapidhdd.com/images/100405vlcsnap-00003.png
 
http://www.rapidhdd.com/images/721353vlcsnap-00008.png
 
http://www.rapidhdd.com/images/483131vlcsnap-00007.png


